<?xml version="1.0" standalone="no"?><!DOCTYPE svg PUBLIC "-//W3C//DTD SVG 1.1//EN" "http://www.w3.org/Graphics/SVG/1.1/DTD/svg11.dtd"><svg t="1498098385840" class="icon" style="" viewBox="0 0 1024 1024" version="1.1" xmlns="http://www.w3.org/2000/svg" p-id="1327" xmlns:xlink="http://www.w3.org/1999/xlink" width="200" height="200"><defs><style type="text/css"></style></defs><path d="M510.919202 0C228.746232 0 0 228.746232 0 510.917532 0 793.090508 228.746232 1021.836739 510.919202 1021.836739 793.092178 1021.836739 1021.838409 793.090508 1021.838409 510.917532 1021.838409 228.746232 793.092178 0 510.919202 0L510.919202 0ZM830.864912 681.623179C820.556422 709.476648 802.547052 706.98263 787.714922 681.247321 783.896221 674.627238 778.13643 665.444648 771.735179 655.446863 760.832 688.707652 742.667278 719.100241 718.697659 744.945801 734.16958 749.514543 747.566772 754.878432 755.093923 761.146049 782.54982 784.188553 783.78597 810.93951 760.501248 831.421181 730.350879 857.949962 608.142409 870.951258 537.294302 831.862188 528.621208 832.612229 519.83619 833.054902 510.94092 833.054902 502.598579 833.054902 494.431632 832.612229 486.288079 831.929003 415.394871 870.92787 293.385188 857.949962 263.258206 831.421181 239.950095 810.93951 241.164529 784.188553 268.64214 761.146049 275.927073 755.098938 288.749625 749.845299 303.560039 745.408521 279.413351 719.476099 261.073227 688.884722 250.10323 655.446863 243.701977 665.444648 237.942186 674.627238 234.123485 681.247321 219.291354 707.006018 201.260268 709.500031 190.973494 681.623179 179.540777 650.724438 183.448013 603.446709 204.504326 550.013288 217.525664 516.993042 239.310303 488.985891 255.201514 470.887988 249.331471 460.756569 245.975491 450.162427 245.975491 439.192431 245.975491 416.283563 259.660007 394.918212 283.121801 376.554701 295.062343 257.877612 392.462617 165.333403 510.94092 165.333403 629.375791 165.333403 726.797781 257.899328 738.738322 376.554701 762.178401 394.918212 775.884632 416.283563 775.884632 439.192431 775.884632 450.162427 772.55204 460.756569 766.65861 470.887988 782.54982 489.007609 804.356178 516.993042 817.355799 550.013288L817.334081 550.013288C838.390393 603.446709 842.297631 650.724438 830.864912 681.623179L830.864912 681.623179Z" p-id="1328" fill="#aa5800"></path></svg>