<?xml version="1.0" standalone="no"?><!DOCTYPE svg PUBLIC "-//W3C//DTD SVG 1.1//EN" "http://www.w3.org/Graphics/SVG/1.1/DTD/svg11.dtd"><svg t="1498098734850" class="icon" style="" viewBox="0 0 1024 1024" version="1.1" xmlns="http://www.w3.org/2000/svg" p-id="2081" xmlns:xlink="http://www.w3.org/1999/xlink" width="200" height="200"><defs><style type="text/css"></style></defs><path d="M375.111818 587.326593c-22.417569 2.341325-38.474266 21.887496-38.474266 40.573067 0 18.73162 18.050098 31.670304 40.48097 29.048593 22.337751-2.549056 40.46869-19.822464 40.46869-38.4845C417.587212 599.708598 400.847969 584.870658 375.111818 587.326593zM432.007643 571.886949c-7.68503 5.564739-9.262968 16.228613-5.077645 22.859637 4.012384 6.769171 13.354146 7.557116 20.936845 1.901303 7.419993-5.843078 10.30674-16.045441 6.2831-22.86066C450.136535 567.157227 440.909383 565.231365 432.007643 571.886949zM509.999948 64.334237c-246.402923 0-446.554452 199.894679-446.554452 446.459285 0 246.473531 200.152553 446.206528 446.554452 446.206528 246.588141 0 446.460308-199.732997 446.460308-446.206528C956.460256 264.22994 756.587066 64.334237 509.999948 64.334237zM754.03801 622.73094C704.829262 727.267808 542.550295 778.135336 422.31591 768.721943c-114.297163-8.995885-261.240863-46.947242-276.426727-185.240935 0 0-8.019651-62.645782 52.699246-143.698796 0 0 87.336114-121.995495 189.090613-156.797116 101.814874-34.658358 113.673969 23.997554 113.673969 58.634422-5.40101 29.39754-15.521508 46.668902 22.698978 34.799574 0 0 100.073206-46.416146 141.261281-5.240351 33.223682 33.269731 5.481851 78.966493 5.481851 78.966493s-13.783934 15.276938 14.570857 20.794605C713.812867 476.597699 803.256992 518.028297 754.03801 622.73094zM655.35343 333.923232c-10.896164 0-19.623943-8.809643-19.623943-19.614733 0-10.989285 8.726755-19.799952 19.623943-19.799952 0 0 122.68111-22.697955 108.027365 109.153002 0 0.787946-0.092098 1.388627-0.254803 2.084475-1.402953 9.320273-9.596566 16.485463-19.289322 16.485463-10.920724 0-19.799952-8.741082-19.799952-19.638269C724.037742 402.594241 743.488747 314.493717 655.35343 333.923232zM862.586239 425.871387c-3.221368 47.481408-14.328333 30.856775-27.496238 30.856775-15.775288 0-28.515451-7.953136-28.515451-23.73968 0-13.701047 5.65479-25.177426 5.65479-25.177426 1.670036-5.77247 15.024182-40.342824-8.809643-93.827969-43.61024-73.285097-131.476427-73.747631-141.862985-69.553099-10.481725 4.080945-25.920346 6.493901-25.920346 6.493901-15.881712 0-28.609595-12.682857-28.609595-28.380374 0-13.166881 8.810666-24.087605 20.841677-27.497261 0 0 0.277316-0.045025 0.708128-0.137123 0.86981-0.184195 1.74883-0.325411 2.713808-0.417509 12.204973-2.364861 55.815213-19.057031 98.241488-9.135054 75.905784 17.71343 180.097798 98.070596 133.219117 240.515842L862.586239 425.871387 862.586239 425.871387zM431.218674 446.597431c-119.375831 5.472642-215.858256 69.414953-215.858256 149.169391 0 79.660294 96.482425 139.52166 215.858256 133.955898 119.447463-5.424546 216.123292-80.216973 216.123292-159.854754C647.342989 490.278279 550.666136 441.078741 431.218674 446.597431zM512.526491 647.166469c-36.549427 47.204092-108.884896 70.225411-179.122587 32.202423-33.407877-18.152429-32.203446-53.739948-32.203446-53.739948s-13.860682-112.491027 106.185414-126.517485C527.620257 485.130026 549.087175 599.963401 512.526491 647.166469z" fill="#aa5800" p-id="2082"></path></svg>