<?xml version="1.0" standalone="no"?><!DOCTYPE svg PUBLIC "-//W3C//DTD SVG 1.1//EN" "http://www.w3.org/Graphics/SVG/1.1/DTD/svg11.dtd"><svg t="1499406954724" class="icon" style="" viewBox="0 0 1025 1024" version="1.1" xmlns="http://www.w3.org/2000/svg" p-id="5884" xmlns:xlink="http://www.w3.org/1999/xlink" width="64.0625" height="64"><defs><style type="text/css"></style></defs><path d="M512.001023 1023.998977c-282.765329 0-512.001023-229.229554-512.001023-511.997953 0-282.765329 229.235694-512.001023 512.001023-512.001023 282.76226 0 511.997953 229.235694 511.997953 512.001023C1023.998977 794.769423 794.763283 1023.998977 512.001023 1023.998977zM742.384855 286.48808c0-11.294118-2.589962-21.886254-7.592856-31.706826-4.93945-9.896295-11.76381-18.633196-20.587692-25.969205-8.791136-7.514062-19.118239-13.326383-30.794046-17.500408-11.850791-4.279424-24.560127-6.498953-38.025678-6.498953L378.617463 204.812689c-13.558672 0-26.176934 2.219529-38.028748 6.498953-11.675807 4.177094-21.99984 9.986345-30.794046 17.500408-8.820811 7.336009-15.675871 16.07291-20.648066 25.969205-4.999824 9.820571-7.526342 20.412708-7.526342 31.706826l0 451.734007c0 11.176439 2.526518 21.777785 7.526342 31.348672 4.972195 9.724382 11.824185 18.196249 20.648066 25.722591 8.797275 7.339079 19.118239 13.149353 30.794046 17.486082 11.850791 4.279424 24.470077 6.411973 38.028748 6.411973l266.76712 0c13.465552 0 26.173864-2.132549 38.028748-6.411973 11.672737-4.336728 21.99984-10.14598 30.794046-17.486082 8.820811-7.526342 15.645172-15.998209 20.587692-25.722591 4.998801-9.570887 7.589786-20.172234 7.589786-31.348672l0 0L742.384855 286.48808 742.384855 286.48808zM341.676479 318.766928l339.763938 0 0 386.37814L341.676479 705.145068 341.676479 318.766928zM559.648754 272.971364l-95.382441 0c-2.972675 0-5.764226-0.99976-8.206834-3.056585-2.617591-2.059895-3.912061-4.885215-3.912061-8.456518 0-3.602002 1.469453-6.411973 4.177094-8.381817 2.761876-2.044545 5.415282-2.988024 7.9418-2.988024l95.382441 0c3.056585 0 5.761156 0.942456 8.321443 2.988024 2.589962 1.969845 3.794381 4.779815 3.794381 8.381817 0 3.572326-1.204419 6.396623-3.794381 8.456518C565.40991 271.971604 562.705339 272.971364 559.648754 272.971364zM511.675615 724.046368c11.001455 0 20.235678 3.496602 27.764066 10.161329 7.532482 6.74966 11.236813 15.115105 11.236813 24.939769 0 9.468558-3.704331 17.678461-11.236813 24.602082-7.529412 6.914411-16.762611 10.414083-27.764066 10.414083-10.585997 0-19.732216-3.499672-27.526662-10.414083-7.706442-6.923621-11.588827-15.130454-11.588827-24.602082 0-9.823641 3.882385-18.190109 11.588827-24.939769C491.943399 727.54297 501.089618 724.046368 511.675615 724.046368z" p-id="5885" fill="#e96147"></path></svg>