<?xml version="1.0" standalone="no"?><!DOCTYPE svg PUBLIC "-//W3C//DTD SVG 1.1//EN" "http://www.w3.org/Graphics/SVG/1.1/DTD/svg11.dtd"><svg t="1499407127195" class="icon" style="" viewBox="0 0 1024 1024" version="1.1" xmlns="http://www.w3.org/2000/svg" p-id="4457" xmlns:xlink="http://www.w3.org/1999/xlink" width="64" height="64"><defs><style type="text/css"></style></defs><path d="M512 0C229.237333 0 0 229.237333 0 512s229.237333 512 512 512 512-229.216 512-512S794.784 0 512 0z m289.258667 668.874667c-11.221333 9.6-24.181333-7.061333-34.656-23.765334-9.770667-15.605333-17.397333-31.221333-19.349334-25.28-9.888 29.866667-14.517333 49.92-43.637333 82.506667-1.546667 1.728 33.685333 14.485333 43.637333 41.6 9.6 26.037333 28.138667 67.296-93.482666 80.245333-38.293333 4.064-70.837333-7.168-93.610667-18.368-19.712-9.717333-32.096-19.445333-34.464-19.2-9.536 0.842667-5.333333 0-15.541333 0-8.373333 0-8.917333 0.618667-16.810667 0-2.133333-0.149333-25.898667 37.6-131.957333 37.6-82.208 0-103.466667-51.754667-86.976-80.245333S318.538667 707.2 314.666667 702.698667a221.482667 221.482667 0 0 1-40.234667-67.349334 159.882667 159.882667 0 0 1-4.864-15.52c-1.461333-5.525333-7.466667 9.92-16.170667 25.312-7.402667 13.237333-16.746667 26.485333-26.666666 26.485334a12.576 12.576 0 0 1-7.626667-2.752c-24.533333-18.133333-22.4-64.416-6.453333-108.693334 16-44.608 56.458667-87.594667 56.938666-97.066666 1.6-35.264-3.498667-41.141333 0-50.410667 7.754667-20.768 17.194667-12.8 17.194667-23.562667 0-135.733333 100.853333-245.76 225.258667-245.76s225.301333 110.026667 225.301333 245.76c0 5.194667 13.493333 0 19.989333 23.562667 1.312 4.874667 2.24 23.648 0.672 50.410667-0.768 12.853333 34.272 28.501333 52.362667 97.066666s-0.053333 100.928-9.109333 108.693334z" p-id="4458" fill="#e96147"></path></svg>