<?xml version="1.0" standalone="no"?><!DOCTYPE svg PUBLIC "-//W3C//DTD SVG 1.1//EN" "http://www.w3.org/Graphics/SVG/1.1/DTD/svg11.dtd"><svg t="1499502713274" class="icon" style="" viewBox="0 0 1024 1024" version="1.1" xmlns="http://www.w3.org/2000/svg" p-id="11834" xmlns:xlink="http://www.w3.org/1999/xlink" width="48" height="48"><defs><style type="text/css"></style></defs><path d="M462.683012 477.029772c-97.737303 10.76007-172.161121 69.043783-164.987741 131.810858 6.276708 62.767075 91.460595 104.910683 189.197899 94.150613 97.737303-10.76007 172.161121-69.043783 164.987741-131.810858-6.276708-62.767075-91.460595-104.910683-189.197899-94.150613z m-1.793345 206.234676c-51.110333 2.690018-93.25394-31.383538-89.66725-79.803853 2.690018-48.420315 44.833625-85.183888 95.047285-85.183887 51.110333 0 90.563923 35.8669 88.770578 80.700525-1.793345 44.833625-43.04028 81.597198-94.150613 84.287215z" fill="#e96147" p-id="11835"></path><path d="M481.513135 587.32049m-11.656743 0a11.656743 11.656743 0 1 0 23.313485 0 11.656743 11.656743 0 1 0-23.313485 0Z" fill="#e96147" p-id="11836"></path><path d="M434.886165 591.803853c-18.830123 0-34.073555 13.450088-33.176883 28.69352 0 16.140105 14.34676 27.796848 31.383538 26.003503 17.036778-0.896673 32.28021-13.450088 32.28021-27.796848 0.896673-15.243433-10.76007-27.796848-30.486865-26.900175z" fill="#e96147" p-id="11837"></path><path d="M511.103327 0c-282.451839 0-511.103327 228.651489-511.103327 511.103327s228.651489 511.103327 511.103327 511.103328 511.103327-228.651489 511.103328-511.103328-228.651489-511.103327-511.103328-511.103327z m147.950964 384.672504c-0.896673 0-0.896673 0 0 0h-3.58669c-9.863398 0-17.036778-7.17338-17.036778-15.243432 0-8.070053 6.276708-14.34676 15.243433-15.243433 112.084063-7.17338 87.873905 84.287215 87.873905 84.287216-0.896673 6.276708-7.17338 10.76007-13.450087 10.76007-8.070053 0-13.450088-6.276708-13.450088-14.34676 0-1.793345 0-3.58669 0.896672-5.380035 0.896673-53.80035-46.62697-47.523643-56.490367-44.833626z m85.183888 190.991244c0 13.450088-0.896673 60.077058-87.873906 118.36077-126.430823 77.113835-341.632224 50.21366-400.812609-69.043782-6.276708-14.34676-18.830123-54.697023 0-99.530648 10.76007-27.796848 93.25394-129.120841 118.36077-141.674256 21.52014-22.416813 90.563923-53.80035 121.947461-45.730298 31.383538 8.070053 38.556918 43.04028 30.486865 69.043783-5.380035 16.140105 6.276708 23.313485 15.243433 18.830123 8.070053-1.793345 11.656743-10.76007 38.556917-18.830123 34.970228-6.276708 52.007005-8.966725 79.803853 11.656743 28.69352 19.726795 7.17338 60.97373 7.17338 60.97373s-8.070053 12.553415 3.58669 15.243432c79.803853 26.900175 73.527145 67.250438 73.527146 80.700526z m82.49387-120.154116c-2.690018 10.76007-12.553415 17.93345-23.313485 17.93345-12.553415-0.896673-22.416813-11.656743-22.416813-24.210157 0-2.690018 0.896673-4.483363 1.793345-7.17338 17.93345-135.397548-117.464098-127.327496-117.464098-127.327496h-3.58669c-12.553415-0.896673-21.52014-11.656743-21.52014-24.210158 0.896673-11.656743 8.966725-20.623468 19.726795-21.52014H665.330998c201.751313 11.656743 161.401051 186.507881 161.401051 186.507881z" fill="#e96147" p-id="11838"></path></svg>