<?xml version="1.0" standalone="no"?><!DOCTYPE svg PUBLIC "-//W3C//DTD SVG 1.1//EN" "http://www.w3.org/Graphics/SVG/1.1/DTD/svg11.dtd"><svg t="1502780486957" class="icon" style="" viewBox="0 0 1024 1024" version="1.1" xmlns="http://www.w3.org/2000/svg" p-id="3954" xmlns:xlink="http://www.w3.org/1999/xlink" width="45" height="45"><defs><style type="text/css"></style></defs><path d="M826.821175 195.883319A444.537516 444.537516 0 0 0 511.477091 65.285912a444.534446 444.534446 0 0 0-315.343062 130.597407 444.454628 444.454628 0 0 0-130.611733 315.311339 444.393229 444.393229 0 0 0 130.611733 315.310316 444.598914 444.598914 0 0 0 315.343062 130.599453v0.098238a444.488397 444.488397 0 0 0 315.343061-130.697691 444.290899 444.290899 0 0 0 130.611733-315.310316 444.396299 444.396299 0 0 0-130.61071-315.311339zM558.353724 393.939117v-58.875922H743.333716v-25.197892H558.304605v-88.337931h-83.932597v88.289836H306.110793v25.196868h168.162977v58.874899h-142.863778v25.196869h290.043862c0 4.217045-25.198915 79.856769-42.014906 113.487727-214.395952-84.073814-277.495058-33.629935-294.310025-25.197892-142.91392 100.886735-62.503543 188.084703 12.648064 222.75534 75.153654 34.719756 248.028956-29.413913 315.29292-109.269659 4.166903 4.216022 8.43409 4.216022 12.600992 4.216022 32.968879 17.968234 151.97018 81.861426 205.03884 110.5887a388.610762 388.610762 0 0 1-43.325761 51.407834 388.883985 388.883985 0 0 1-275.906887 114.278743A388.832819 388.832819 0 0 1 235.620345 787.073916a388.854309 388.854309 0 0 1-114.292046-275.879258 388.748908 388.748908 0 0 1 114.241904-275.778974 388.933103 388.933103 0 0 1 275.906888-114.279766 388.782677 388.782677 0 0 1 275.856745 114.180505 388.746862 388.746862 0 0 1 114.293069 275.878235 388.532991 388.532991 0 0 1-20.959358 126.548184c-53.998845-14.442944-157.737534-55.918567-229.798756-79.92226 45.657876-82.939991 62.590524-161.770384 63.038732-163.880441H558.353724z m-8.332782 189.126429a52.05047 52.05047 0 0 1-8.43409 12.597922c-105.114013 134.51667-231.210919 92.504834-252.243954 84.071768-50.448996-12.597923-67.26601-105.052614-4.214999-134.51667 105.112989-33.57877 197.577914 4.218068 264.893043 37.84698z m163.896814-189.176571l-0.010233 0.050142h0.060375l-0.050142-0.050142z" p-id="3955" fill="#2c2c2c"></path></svg>