<?xml version="1.0" standalone="no"?><!DOCTYPE svg PUBLIC "-//W3C//DTD SVG 1.1//EN" "http://www.w3.org/Graphics/SVG/1.1/DTD/svg11.dtd"><svg t="1502780696073" class="icon" style="" viewBox="0 0 1024 1024" version="1.1" xmlns="http://www.w3.org/2000/svg" p-id="4565" xmlns:xlink="http://www.w3.org/1999/xlink" width="45" height="45"><defs><style type="text/css"></style></defs><path d="M503.7568 151.790592c-199.482368 0-361.19552 161.713152-361.19552 361.196544 0 199.483392 161.713152 361.1904 361.19552 361.1904 199.47008 0 361.197568-161.707008 361.197568-361.1904C864.954368 313.503744 703.22688 151.790592 503.7568 151.790592zM576.948224 722.107392c-4.07552 0-8.194048 0-12.365824 0l0 93.142016-57.029632 0L507.552768 722.107392c-12.701696 0-25.45664 0-38.023168 0l0 93.142016-57.029632 0L412.499968 722.107392c-62.447616 0-110.263296 0-110.263296 0l1.90464-59.886592c0 0 32.310272 0 43.7248 0 11.400192 0 21.8624-6.651904 21.8624-27.569152s0-237.628416 0-252.83072c0-15.21664-9.495552-20.91008-28.500992-20.91008-19.032064 0-42.77248 0-42.77248 0l0-58.94144c0 0 54.762496 0 114.045952 0l0-91.2384 57.029632 0 0 91.2384c13.57312 0 26.463232 0 38.023168 0l0-91.2384 57.029632 0 0 92.317696c58.10176 4.93568 130.50368 27.984896 138.7776 89.22624 9.509888 70.334464-47.519744 98.842624-47.519744 98.842624s77.001728 18.066432 77.001728 96.019456C732.841984 665.064448 693.85216 722.107392 576.948224 722.107392z" p-id="4566" fill="#1296db"></path><path d="M542.72 534.849536c-17.099776 0-28.527616 0-28.527616 0l-44.663808 0L469.528576 656.520192c6.209536 0 22.197248 0 62.743552 0 60.8256 0 90.305536-24.725504 90.305536-70.341632C622.578688 540.563456 559.848448 534.849536 542.72 534.849536z" p-id="4567" fill="#1296db"></path><path d="M595.002368 416.034816c0-46.574592-56.091648-51.329024-84.591616-51.329024-20.588544 0-34.591744 0-40.881152 0l0 111.685632 75.497472 0C564.890624 473.708544 595.002368 458.042368 595.002368 416.034816z" p-id="4568" fill="#1296db"></path><path d="M503.7568 9.216c-278.240256 0-503.7568 225.543168-503.7568 503.771136 0 278.213632 225.516544 503.778304 503.7568 503.778304 278.227968 0 503.77216-225.563648 503.77216-503.778304C1007.52896 234.759168 781.984768 9.216 503.7568 9.216zM503.7568 974.9248c-255.117312 0-461.964288-206.814208-461.964288-461.937664 0-255.131648 206.846976-461.944832 461.964288-461.944832 255.131648 0 461.9264 206.813184 461.9264 461.944832C965.682176 768.111616 758.888448 974.9248 503.7568 974.9248z" p-id="4569" fill="#1296db"></path></svg>