<?xml version="1.0" standalone="no"?><!DOCTYPE svg PUBLIC "-//W3C//DTD SVG 1.1//EN" "http://www.w3.org/Graphics/SVG/1.1/DTD/svg11.dtd"><svg t="1502780717941" class="icon" style="" viewBox="0 0 1024 1024" version="1.1" xmlns="http://www.w3.org/2000/svg" p-id="5327" xmlns:xlink="http://www.w3.org/1999/xlink" width="45" height="45"><defs><style type="text/css"></style></defs><path d="M856.444 260.398h-647c-19.852 0-35.945 16.093-35.945 35.945v431.333c0 19.85 16.093 35.945 35.945 35.945h647c19.852 0 35.945-16.095 35.945-35.945v-431.334c-0.001-19.852-16.093-35.944-35.945-35.944zM755.084 393.052c0 9.926-8.048 17.972-17.972 17.972h-432.896c-9.924 0-17.972-8.046-17.972-17.972v-26.958c0-9.926 8.048-17.972 17.972-17.972l432.896 0c9.924 0 17.972 8.046 17.972 17.972v26.958z" p-id="5328" fill="#1296db"></path></svg>