<?xml version="1.0" standalone="no"?><!DOCTYPE svg PUBLIC "-//W3C//DTD SVG 1.1//EN" "http://www.w3.org/Graphics/SVG/1.1/DTD/svg11.dtd"><svg t="1502266817471" class="icon" style="" viewBox="0 0 1024 1024" version="1.1" xmlns="http://www.w3.org/2000/svg" p-id="3224" xmlns:xlink="http://www.w3.org/1999/xlink" width="30" height="30"><defs><style type="text/css"></style></defs><path d="M512.001 0C229.228 0 0 229.228 0 512.001c0 282.746 229.228 512.001 512.001 512.001s512.001-229.255 512.001-512.001C1024.003 229.228 794.774 0 512.001 0L512.001 0zM738.858 637.064c0 0-16.209 44.221-45.945 83.941 0 0 53.127 18.055 48.64 64.984 0 0 1.779 52.345-113.462 48.734 0 0-81.071-6.319-105.378-40.61L501.29 794.113c-24.307 34.304-105.351 40.61-105.351 40.61-115.281 3.611-113.476-48.734-113.476-48.734-4.5-46.929 48.627-64.984 48.627-64.984-29.71-39.72-45.918-83.941-45.918-83.941-72.057 116.44-64.849-16.249-64.849-16.249 13.528-78.525 70.238-129.967 70.238-129.967-8.111-71.316 21.612-83.941 21.612-83.941 6.238-220.619 195.854-216.765 199.829-216.657 3.988-0.108 193.577-3.961 199.829 216.644 0 0 29.71 12.638 21.612 83.941 0 0 56.738 51.443 70.239 129.967l0 0C803.68 620.815 810.875 753.504 738.858 637.064L738.858 637.064z" p-id="3225" fill="#ec6952"></path></svg>